<?xml version="1.0" encoding="UTF-8"?>
<!DOCTYPE svg PUBLIC "-//W3C//DTD SVG 1.1//EN" "http://www.w3.org/Graphics/SVG/1.1/DTD/svg11.dtd">
<svg version="1.1" xmlns="http://www.w3.org/2000/svg" xmlns:xlink="http://www.w3.org/1999/xlink" x="0" y="0" width="182.709" height="71.333" viewBox="0, 0, 182.709, 71.333">
  <g id="Layer_1" transform="translate(-344, -375)">
    <text transform="matrix(1, 0, 0, 1, 369.5, 410.667)">
      <tspan x="-21.654" y="12.5" font-family="HelveticaNeue" font-size="36" fill="#808080">arr</tspan>
    </text>
    <g>
      <text transform="matrix(1, 0, 0, 1, 460.688, 415)">
        <tspan x="-30.024" y="8.167" font-family="HelveticaNeue" font-size="36" fill="#808080">???</tspan>
      </text>
      <path d="M438.512,419.171 L438.512,423.167 L442.508,423.167 L442.508,419.171 z M432.644,405.491 L435.704,405.491 Q435.704,404.231 435.992,403.151 Q436.28,402.071 436.91,401.279 Q437.54,400.487 438.476,400.019 Q439.412,399.551 440.708,399.551 Q442.652,399.551 443.786,400.667 Q444.92,401.783 445.064,403.763 Q445.136,405.095 444.74,406.031 Q444.344,406.967 443.678,407.741 Q443.012,408.515 442.238,409.217 Q441.464,409.919 440.762,410.747 Q440.06,411.575 439.574,412.637 Q439.088,413.699 439.016,415.211 L439.016,416.903 L442.076,416.903 L442.076,415.499 Q442.076,414.563 442.346,413.825 Q442.616,413.087 443.066,412.457 Q443.516,411.827 444.074,411.269 Q444.632,410.711 445.208,410.171 Q445.784,409.595 446.342,408.983 Q446.9,408.371 447.332,407.651 Q447.764,406.931 448.034,406.049 Q448.304,405.167 448.304,404.051 Q448.304,402.323 447.746,400.991 Q447.188,399.659 446.18,398.741 Q445.172,397.823 443.786,397.337 Q442.4,396.851 440.708,396.851 Q438.836,396.851 437.324,397.499 Q435.812,398.147 434.768,399.317 Q433.724,400.487 433.166,402.071 Q432.608,403.655 432.644,405.491 z M458.528,419.171 L458.528,423.167 L462.524,423.167 L462.524,419.171 z M452.66,405.491 L455.72,405.491 Q455.72,404.231 456.008,403.151 Q456.296,402.071 456.926,401.279 Q457.556,400.487 458.492,400.019 Q459.428,399.551 460.724,399.551 Q462.668,399.551 463.802,400.667 Q464.936,401.783 465.08,403.763 Q465.152,405.095 464.756,406.031 Q464.36,406.967 463.694,407.741 Q463.028,408.515 462.254,409.217 Q461.48,409.919 460.778,410.747 Q460.076,411.575 459.59,412.637 Q459.104,413.699 459.032,415.211 L459.032,416.903 L462.092,416.903 L462.092,415.499 Q462.092,414.563 462.362,413.825 Q462.632,413.087 463.082,412.457 Q463.532,411.827 464.09,411.269 Q464.648,410.711 465.224,410.171 Q465.8,409.595 466.358,408.983 Q466.916,408.371 467.348,407.651 Q467.78,406.931 468.05,406.049 Q468.32,405.167 468.32,404.051 Q468.32,402.323 467.762,400.991 Q467.204,399.659 466.196,398.741 Q465.188,397.823 463.802,397.337 Q462.416,396.851 460.724,396.851 Q458.852,396.851 457.34,397.499 Q455.828,398.147 454.784,399.317 Q453.74,400.487 453.182,402.071 Q452.624,403.655 452.66,405.491 z M478.544,419.171 L478.544,423.167 L482.54,423.167 L482.54,419.171 z M472.676,405.491 L475.736,405.491 Q475.736,404.231 476.024,403.151 Q476.312,402.071 476.942,401.279 Q477.572,400.487 478.508,400.019 Q479.444,399.551 480.74,399.551 Q482.684,399.551 483.818,400.667 Q484.952,401.783 485.096,403.763 Q485.168,405.095 484.772,406.031 Q484.376,406.967 483.71,407.741 Q483.044,408.515 482.27,409.217 Q481.496,409.919 480.794,410.747 Q480.092,411.575 479.606,412.637 Q479.12,413.699 479.048,415.211 L479.048,416.903 L482.108,416.903 L482.108,415.499 Q482.108,414.563 482.378,413.825 Q482.648,413.087 483.098,412.457 Q483.548,411.827 484.106,411.269 Q484.664,410.711 485.24,410.171 Q485.816,409.595 486.374,408.983 Q486.932,408.371 487.364,407.651 Q487.796,406.931 488.066,406.049 Q488.336,405.167 488.336,404.051 Q488.336,402.323 487.778,400.991 Q487.22,399.659 486.212,398.741 Q485.204,397.823 483.818,397.337 Q482.432,396.851 480.74,396.851 Q478.868,396.851 477.356,397.499 Q475.844,398.147 474.8,399.317 Q473.756,400.487 473.198,402.071 Q472.64,403.655 472.676,405.491 z" fill-opacity="0" stroke="#808080" stroke-width="1"/>
    </g>
    <path d="M431.724,384.5 L491.319,384.5 C506.17,384.5 518.209,396.125 518.209,410.465 L518.209,411.868 C518.209,426.208 506.17,437.833 491.319,437.833 L431.724,437.833 C416.873,437.833 404.833,426.208 404.833,411.868 L404.833,410.465 C404.833,396.125 416.873,384.5 431.724,384.5 z" fill-opacity="0" stroke="#FF4500" stroke-width="4"/>
  </g>
</svg>
