<?xml version="1.0" encoding="UTF-8"?>
<!DOCTYPE svg PUBLIC "-//W3C//DTD SVG 1.1//EN" "http://www.w3.org/Graphics/SVG/1.1/DTD/svg11.dtd">
<svg version="1.1" xmlns="http://www.w3.org/2000/svg" xmlns:xlink="http://www.w3.org/1999/xlink" x="0" y="0" width="415.064" height="303" viewBox="0, 0, 415.064, 303">
  <g id="Layer_1" transform="translate(-106.667, -223.667)">
    <text transform="matrix(1, 0, 0, 1, 132.167, 400.667)">
      <tspan x="-21.654" y="12.5" font-family="HelveticaNeue" font-size="36" fill="#808080">arr</tspan>
    </text>
    <g>
      <text transform="matrix(1, 0, 0, 1, 223.355, 415.5)">
        <tspan x="-38.406" y="-10.667" font-family="Courier" font-size="16" fill="#666666">2d38eb89</tspan>
      </text>
      <path d="M187.027,404.833 Q186.612,404.833 186.413,404.665 Q186.214,404.497 186.214,404.146 Q186.214,403.638 187.714,402.24 L187.941,402.021 Q188.167,401.802 188.597,401.396 Q191.3,398.849 191.3,397.685 Q191.3,396.849 190.823,396.329 Q190.347,395.81 189.589,395.81 Q189.097,395.81 188.648,396.013 Q188.198,396.216 187.925,396.56 Q187.878,396.622 187.777,396.771 Q187.487,397.294 187.128,397.294 Q186.847,397.294 186.73,397.122 Q186.612,396.951 186.612,396.466 Q186.612,396.185 186.667,396.056 Q186.722,395.927 186.87,395.779 Q187.37,395.294 188.109,395.009 Q188.847,394.724 189.62,394.724 Q190.917,394.724 191.788,395.56 Q192.659,396.396 192.659,397.615 Q192.659,399.146 190.003,401.685 Q189.323,402.318 188.964,402.677 L188.003,403.599 L191.573,403.599 Q191.605,403.263 191.757,403.087 Q191.909,402.911 192.167,402.911 Q192.425,402.911 192.573,403.083 Q192.722,403.255 192.722,403.552 Q192.722,403.576 192.714,403.634 Q192.706,403.693 192.706,403.716 L192.644,404.318 Q192.62,404.56 192.503,404.697 Q192.386,404.833 192.198,404.833 z M201.698,404.833 Q201.534,404.833 201.468,404.751 Q201.402,404.669 201.402,404.435 L201.402,403.794 Q200.933,404.38 200.23,404.704 Q199.527,405.029 198.706,405.029 Q197.23,405.029 196.234,403.978 Q195.237,402.927 195.237,401.365 Q195.237,399.747 196.3,398.673 Q197.362,397.599 198.948,397.599 Q199.753,397.599 200.394,397.884 Q201.034,398.169 201.495,398.724 L201.495,395.732 L201.081,395.732 Q200.402,395.732 200.202,395.611 Q200.003,395.49 200.003,395.169 Q200.003,394.888 200.163,394.747 Q200.323,394.607 200.628,394.607 L202.23,394.607 Q202.464,394.607 202.57,394.685 Q202.675,394.763 202.675,394.927 L202.675,403.732 L203.027,403.732 Q203.409,403.732 203.581,403.861 Q203.753,403.99 203.753,404.271 Q203.753,404.536 203.605,404.685 Q203.456,404.833 203.206,404.833 z M196.581,401.326 Q196.581,402.404 197.277,403.091 Q197.972,403.779 199.042,403.779 Q200.12,403.779 200.816,403.064 Q201.511,402.349 201.511,401.247 Q201.511,400.161 200.82,399.458 Q200.128,398.755 199.042,398.755 Q197.941,398.755 197.261,399.466 Q196.581,400.177 196.581,401.326 z M210.167,399.458 Q211.081,399.708 211.585,400.368 Q212.089,401.029 212.089,401.982 Q212.089,403.349 211.12,404.22 Q210.152,405.091 208.612,405.091 Q207.425,405.091 206.499,404.634 Q205.573,404.177 205.573,403.63 Q205.573,403.396 205.741,403.243 Q205.909,403.091 206.152,403.091 Q206.284,403.091 207.116,403.49 Q207.948,403.888 208.667,403.888 Q209.597,403.888 210.179,403.357 Q210.761,402.826 210.761,401.982 Q210.761,401.286 210.359,400.806 Q209.956,400.326 209.253,400.193 Q209.042,400.154 208.698,400.13 Q208.042,400.091 208.042,399.583 Q208.042,399.122 208.683,399.044 Q208.933,399.021 209.097,398.99 Q209.706,398.896 210.081,398.49 Q210.456,398.083 210.456,397.505 Q210.456,396.763 209.995,396.294 Q209.534,395.826 208.823,395.826 Q208.167,395.826 207.476,396.232 Q206.784,396.638 206.612,396.638 Q206.394,396.638 206.249,396.497 Q206.105,396.357 206.105,396.146 Q206.105,395.669 206.98,395.197 Q207.855,394.724 208.917,394.724 Q210.136,394.724 210.945,395.462 Q211.753,396.201 211.753,397.279 Q211.753,398.099 211.366,398.63 Q210.98,399.161 210.167,399.458 z M216.652,402.146 Q216.652,402.974 217.171,403.49 Q217.691,404.005 218.55,404.005 Q219.417,404.005 219.937,403.505 Q220.456,403.005 220.456,402.177 Q220.456,401.365 219.925,400.861 Q219.394,400.357 218.55,400.357 Q217.714,400.357 217.183,400.853 Q216.652,401.349 216.652,402.146 z M216.73,397.49 Q216.73,398.263 217.241,398.755 Q217.753,399.247 218.55,399.247 Q219.355,399.247 219.866,398.751 Q220.378,398.255 220.378,397.474 Q220.378,396.724 219.866,396.236 Q219.355,395.747 218.55,395.747 Q217.745,395.747 217.237,396.236 Q216.73,396.724 216.73,397.49 z M216.987,399.779 Q216.23,399.404 215.847,398.829 Q215.464,398.255 215.464,397.49 Q215.464,396.279 216.331,395.501 Q217.198,394.724 218.55,394.724 Q219.878,394.724 220.761,395.505 Q221.644,396.286 221.644,397.411 Q221.644,398.247 221.269,398.826 Q220.894,399.404 220.105,399.779 Q220.894,400.099 221.316,400.72 Q221.737,401.341 221.737,402.177 Q221.737,403.466 220.851,404.279 Q219.964,405.091 218.55,405.091 Q217.136,405.091 216.253,404.271 Q215.37,403.451 215.37,402.146 Q215.37,401.349 215.792,400.728 Q216.214,400.107 216.987,399.779 z M225.511,401.568 Q225.573,402.693 226.273,403.306 Q226.972,403.919 228.183,403.919 Q229.097,403.919 230.175,403.431 Q231.253,402.943 231.48,402.943 Q231.714,402.943 231.87,403.091 Q232.027,403.24 232.027,403.458 Q232.027,403.685 231.862,403.872 Q231.698,404.06 231.339,404.24 Q230.558,404.622 229.726,404.826 Q228.894,405.029 228.073,405.029 Q226.292,405.029 225.222,404.001 Q224.152,402.974 224.152,401.279 Q224.152,399.552 225.284,398.482 Q226.417,397.411 228.237,397.411 Q229.886,397.411 230.972,398.411 Q232.058,399.411 232.058,400.833 Q232.058,401.271 231.874,401.419 Q231.691,401.568 230.878,401.568 L230.761,401.568 z M225.55,400.544 L230.636,400.544 Q230.519,399.615 229.859,399.048 Q229.198,398.482 228.237,398.482 Q227.198,398.482 226.487,399.029 Q225.777,399.576 225.55,400.544 z M238.175,403.747 Q239.277,403.747 239.964,403.052 Q240.652,402.357 240.652,401.247 Q240.652,400.161 239.952,399.458 Q239.253,398.755 238.175,398.755 Q237.089,398.755 236.398,399.454 Q235.706,400.154 235.706,401.247 Q235.706,402.341 236.398,403.044 Q237.089,403.747 238.175,403.747 z M235.737,398.74 Q236.175,398.193 236.831,397.904 Q237.487,397.615 238.316,397.615 Q239.886,397.615 240.933,398.673 Q241.98,399.732 241.98,401.294 Q241.98,402.833 240.905,403.904 Q239.831,404.974 238.284,404.974 Q237.464,404.974 236.855,404.685 Q236.245,404.396 235.855,403.81 L235.855,404.435 Q235.855,404.646 235.78,404.74 Q235.706,404.833 235.534,404.833 L234.105,404.833 Q233.8,404.833 233.652,404.693 Q233.503,404.552 233.503,404.271 Q233.503,403.958 233.683,403.845 Q233.862,403.732 234.394,403.732 L234.558,403.732 L234.558,395.732 L234.409,395.732 Q233.878,395.732 233.683,395.607 Q233.487,395.482 233.487,395.169 Q233.487,394.888 233.644,394.747 Q233.8,394.607 234.105,394.607 L235.292,394.607 Q235.527,394.607 235.632,394.685 Q235.737,394.763 235.737,394.927 z M245.456,402.146 Q245.456,402.974 245.976,403.49 Q246.495,404.005 247.355,404.005 Q248.222,404.005 248.741,403.505 Q249.261,403.005 249.261,402.177 Q249.261,401.365 248.73,400.861 Q248.198,400.357 247.355,400.357 Q246.519,400.357 245.987,400.853 Q245.456,401.349 245.456,402.146 z M245.534,397.49 Q245.534,398.263 246.046,398.755 Q246.558,399.247 247.355,399.247 Q248.159,399.247 248.671,398.751 Q249.183,398.255 249.183,397.474 Q249.183,396.724 248.671,396.236 Q248.159,395.747 247.355,395.747 Q246.55,395.747 246.042,396.236 Q245.534,396.724 245.534,397.49 z M245.792,399.779 Q245.034,399.404 244.652,398.829 Q244.269,398.255 244.269,397.49 Q244.269,396.279 245.136,395.501 Q246.003,394.724 247.355,394.724 Q248.683,394.724 249.566,395.505 Q250.448,396.286 250.448,397.411 Q250.448,398.247 250.073,398.826 Q249.698,399.404 248.909,399.779 Q249.698,400.099 250.12,400.72 Q250.542,401.341 250.542,402.177 Q250.542,403.466 249.655,404.279 Q248.769,405.091 247.355,405.091 Q245.941,405.091 245.058,404.271 Q244.175,403.451 244.175,402.146 Q244.175,401.349 244.597,400.728 Q245.019,400.107 245.792,399.779 z M258.737,400.115 Q258.316,400.654 257.808,400.919 Q257.3,401.185 256.691,401.185 Q255.456,401.185 254.593,400.259 Q253.73,399.333 253.73,397.982 Q253.73,396.56 254.562,395.642 Q255.394,394.724 256.691,394.724 Q258.222,394.724 259.159,395.954 Q260.097,397.185 260.097,399.216 Q260.097,401.896 258.726,403.493 Q257.355,405.091 255.058,405.091 Q254.331,405.091 254.093,404.982 Q253.855,404.872 253.855,404.576 Q253.855,404.076 254.784,404.052 Q255.402,404.036 255.761,403.966 Q256.995,403.74 257.765,402.74 Q258.534,401.74 258.737,400.115 z M258.573,398.021 Q258.573,397.052 258.062,396.447 Q257.55,395.841 256.753,395.841 Q255.995,395.841 255.527,396.411 Q255.058,396.982 255.058,397.904 Q255.058,398.857 255.55,399.454 Q256.042,400.052 256.816,400.052 Q257.573,400.052 258.073,399.478 Q258.573,398.904 258.573,398.021 z" fill-opacity="0" stroke="#808080" stroke-width="1"/>
    </g>
    <path d="M194.39,374.5 L253.986,374.5 C268.837,374.5 280.876,386.125 280.876,400.465 L280.876,401.868 C280.876,416.208 268.837,427.833 253.986,427.833 L194.39,427.833 C179.539,427.833 167.5,416.208 167.5,401.868 L167.5,400.465 C167.5,386.125 179.539,374.5 194.39,374.5 z" fill-opacity="0" stroke="#FF4500" stroke-width="4"/>
    <path d="M403.5,323.167 L513.231,323.167 L513.231,372.5 L403.5,372.5 L403.5,323.167 z" fill-opacity="0" stroke="#FF4500" stroke-width="4"/>
    <path d="M403.5,372.5 L513.231,372.5 L513.231,421.833 L403.5,421.833 L403.5,372.5 z" fill-opacity="0" stroke="#FF4500" stroke-width="4"/>
    <path d="M403.5,421.833 L513.231,421.833 L513.231,471.167 L403.5,471.167 L403.5,421.833 z" fill-opacity="0" stroke="#FF4500" stroke-width="4"/>
    <g>
      <text transform="matrix(1, 0, 0, 1, 457.865, 303)">
        <tspan x="-10.008" y="8.167" font-family="HelveticaNeue" font-size="36" fill="#808080">1</tspan>
      </text>
      <path d="M460.673,311.167 L460.673,285.643 L458.333,285.643 Q458.081,287.083 457.397,288.019 Q456.713,288.955 455.723,289.495 Q454.733,290.035 453.509,290.233 Q452.285,290.431 450.989,290.431 L450.989,292.879 L457.613,292.879 L457.613,311.167 z" fill-opacity="0" stroke="#808080" stroke-width="1"/>
    </g>
    <g>
      <text transform="matrix(1, 0, 0, 1, 457.865, 353.333)">
        <tspan x="-10.008" y="8.167" font-family="HelveticaNeue" font-size="36" fill="#808080">2</tspan>
      </text>
      <path d="M449.441,345.012 L452.501,345.012 Q452.465,343.86 452.735,342.726 Q453.005,341.592 453.617,340.692 Q454.229,339.792 455.183,339.234 Q456.137,338.676 457.469,338.676 Q458.477,338.676 459.377,339 Q460.277,339.324 460.943,339.936 Q461.609,340.548 462.005,341.394 Q462.401,342.24 462.401,343.284 Q462.401,344.616 461.987,345.624 Q461.573,346.632 460.763,347.496 Q459.953,348.36 458.729,349.206 Q457.505,350.052 455.885,351.06 Q454.553,351.852 453.329,352.752 Q452.105,353.652 451.133,354.84 Q450.161,356.028 449.531,357.63 Q448.901,359.232 448.721,361.5 L465.389,361.5 L465.389,358.8 L452.285,358.8 Q452.501,357.612 453.203,356.694 Q453.905,355.776 454.895,354.984 Q455.885,354.192 457.073,353.49 Q458.261,352.788 459.449,352.068 Q460.637,351.312 461.753,350.484 Q462.869,349.656 463.733,348.63 Q464.597,347.604 465.119,346.308 Q465.641,345.012 465.641,343.32 Q465.641,341.52 465.011,340.152 Q464.381,338.784 463.301,337.866 Q462.221,336.948 460.763,336.462 Q459.305,335.976 457.649,335.976 Q455.633,335.976 454.049,336.66 Q452.465,337.344 451.403,338.55 Q450.341,339.756 449.837,341.412 Q449.333,343.068 449.441,345.012 z" fill-opacity="0" stroke="#808080" stroke-width="1"/>
    </g>
    <g>
      <text transform="matrix(1, 0, 0, 1, 457.865, 401)">
        <tspan x="-10.008" y="8.167" font-family="HelveticaNeue" font-size="36" fill="#808080">3</tspan>
      </text>
      <path d="M455.705,394.587 L455.705,397.179 Q456.569,397.071 457.541,397.071 Q458.693,397.071 459.683,397.377 Q460.673,397.683 461.393,398.313 Q462.113,398.943 462.545,399.861 Q462.977,400.779 462.977,401.967 Q462.977,403.119 462.527,404.037 Q462.077,404.955 461.321,405.585 Q460.565,406.215 459.557,406.557 Q458.549,406.899 457.433,406.899 Q454.805,406.899 453.437,405.333 Q452.069,403.767 451.997,401.283 L448.937,401.283 Q448.901,403.263 449.495,404.811 Q450.089,406.359 451.205,407.421 Q452.321,408.483 453.905,409.023 Q455.489,409.563 457.433,409.563 Q459.233,409.563 460.835,409.077 Q462.437,408.591 463.625,407.619 Q464.813,406.647 465.515,405.189 Q466.217,403.731 466.217,401.823 Q466.217,399.519 465.083,397.827 Q463.949,396.135 461.609,395.631 L461.609,395.559 Q463.121,394.875 464.129,393.543 Q465.137,392.211 465.137,390.483 Q465.137,388.719 464.543,387.423 Q463.949,386.127 462.905,385.299 Q461.861,384.471 460.439,384.057 Q459.017,383.643 457.361,383.643 Q455.453,383.643 453.995,384.255 Q452.537,384.867 451.565,385.947 Q450.593,387.027 450.071,388.539 Q449.549,390.051 449.477,391.887 L452.537,391.887 Q452.537,390.771 452.825,389.763 Q453.113,388.755 453.707,387.999 Q454.301,387.243 455.219,386.793 Q456.137,386.343 457.361,386.343 Q459.305,386.343 460.601,387.369 Q461.897,388.395 461.897,390.447 Q461.897,391.455 461.501,392.247 Q461.105,393.039 460.439,393.561 Q459.773,394.083 458.891,394.353 Q458.009,394.623 457.037,394.623 L456.389,394.623 Q456.209,394.623 456.029,394.623 Q455.885,394.623 455.705,394.587 z" fill-opacity="0" stroke="#808080" stroke-width="1"/>
    </g>
    <g>
      <text transform="matrix(1, 0, 0, 1, 457.865, 450)">
        <tspan x="-10.008" y="8.167" font-family="HelveticaNeue" font-size="36" fill="#808080">4</tspan>
      </text>
      <path d="M460.061,449.491 L451.493,449.491 L459.989,436.999 L460.061,436.999 z M462.941,449.491 L462.941,432.643 L460.493,432.643 L448.865,449.239 L448.865,452.191 L460.061,452.191 L460.061,458.167 L462.941,458.167 L462.941,452.191 L466.397,452.191 L466.397,449.491 z" fill-opacity="0" stroke="#808080" stroke-width="1"/>
    </g>
    <g>
      <text transform="matrix(1, 0, 0, 1, 457.865, 499.667)">
        <tspan x="-10.008" y="8.167" font-family="HelveticaNeue" font-size="36" fill="#808080">5</tspan>
      </text>
      <path d="M464.777,485.441 L464.777,482.741 L452.177,482.741 L449.801,495.989 L452.429,496.133 Q453.329,495.053 454.499,494.387 Q455.669,493.721 457.181,493.721 Q458.477,493.721 459.539,494.153 Q460.601,494.585 461.357,495.359 Q462.113,496.133 462.527,497.195 Q462.941,498.257 462.941,499.517 Q462.941,501.029 462.509,502.163 Q462.077,503.297 461.339,504.053 Q460.601,504.809 459.611,505.187 Q458.621,505.565 457.541,505.565 Q456.389,505.565 455.435,505.223 Q454.481,504.881 453.779,504.251 Q453.077,503.621 452.663,502.775 Q452.249,501.929 452.177,500.957 L449.117,500.957 Q449.153,502.685 449.801,504.053 Q450.449,505.421 451.565,506.339 Q452.681,507.257 454.139,507.743 Q455.597,508.229 457.253,508.229 Q459.485,508.229 461.159,507.527 Q462.833,506.825 463.949,505.637 Q465.065,504.449 465.623,502.919 Q466.181,501.389 466.181,499.769 Q466.181,497.573 465.533,495.935 Q464.885,494.297 463.769,493.199 Q462.653,492.101 461.141,491.561 Q459.629,491.021 457.937,491.021 Q456.641,491.021 455.327,491.471 Q454.013,491.921 453.185,492.857 L453.113,492.785 L454.481,485.441 z" fill-opacity="0" stroke="#808080" stroke-width="1"/>
    </g>
    <g>
      <text transform="matrix(1, 0, 0, 1, 353.957, 310)">
        <tspan x="-38.406" y="-10.667" font-family="Courier" font-size="16" fill="#666666">2d38eb89</tspan>
      </text>
      <path d="M317.629,299.333 Q317.215,299.333 317.016,299.165 Q316.817,298.997 316.817,298.646 Q316.817,298.138 318.317,296.74 L318.543,296.521 Q318.77,296.302 319.2,295.896 Q321.903,293.349 321.903,292.185 Q321.903,291.349 321.426,290.829 Q320.95,290.31 320.192,290.31 Q319.7,290.31 319.25,290.513 Q318.801,290.716 318.528,291.06 Q318.481,291.122 318.379,291.271 Q318.09,291.794 317.731,291.794 Q317.45,291.794 317.332,291.622 Q317.215,291.451 317.215,290.966 Q317.215,290.685 317.27,290.556 Q317.325,290.427 317.473,290.279 Q317.973,289.794 318.711,289.509 Q319.45,289.224 320.223,289.224 Q321.52,289.224 322.391,290.06 Q323.262,290.896 323.262,292.115 Q323.262,293.646 320.606,296.185 Q319.926,296.818 319.567,297.177 L318.606,298.099 L322.176,298.099 Q322.207,297.763 322.36,297.587 Q322.512,297.411 322.77,297.411 Q323.028,297.411 323.176,297.583 Q323.325,297.755 323.325,298.052 Q323.325,298.076 323.317,298.134 Q323.309,298.193 323.309,298.216 L323.246,298.818 Q323.223,299.06 323.106,299.197 Q322.989,299.333 322.801,299.333 z M332.301,299.333 Q332.137,299.333 332.071,299.251 Q332.004,299.169 332.004,298.935 L332.004,298.294 Q331.535,298.88 330.832,299.204 Q330.129,299.529 329.309,299.529 Q327.832,299.529 326.836,298.478 Q325.84,297.427 325.84,295.865 Q325.84,294.247 326.903,293.173 Q327.965,292.099 329.551,292.099 Q330.356,292.099 330.996,292.384 Q331.637,292.669 332.098,293.224 L332.098,290.232 L331.684,290.232 Q331.004,290.232 330.805,290.111 Q330.606,289.99 330.606,289.669 Q330.606,289.388 330.766,289.247 Q330.926,289.107 331.231,289.107 L332.832,289.107 Q333.067,289.107 333.172,289.185 Q333.278,289.263 333.278,289.427 L333.278,298.232 L333.629,298.232 Q334.012,298.232 334.184,298.361 Q334.356,298.49 334.356,298.771 Q334.356,299.036 334.207,299.185 Q334.059,299.333 333.809,299.333 z M327.184,295.826 Q327.184,296.904 327.879,297.591 Q328.575,298.279 329.645,298.279 Q330.723,298.279 331.418,297.564 Q332.114,296.849 332.114,295.747 Q332.114,294.661 331.422,293.958 Q330.731,293.255 329.645,293.255 Q328.543,293.255 327.864,293.966 Q327.184,294.677 327.184,295.826 z M340.77,293.958 Q341.684,294.208 342.188,294.868 Q342.692,295.529 342.692,296.482 Q342.692,297.849 341.723,298.72 Q340.754,299.591 339.215,299.591 Q338.028,299.591 337.102,299.134 Q336.176,298.677 336.176,298.13 Q336.176,297.896 336.344,297.743 Q336.512,297.591 336.754,297.591 Q336.887,297.591 337.719,297.99 Q338.551,298.388 339.27,298.388 Q340.2,298.388 340.782,297.857 Q341.364,297.326 341.364,296.482 Q341.364,295.786 340.961,295.306 Q340.559,294.826 339.856,294.693 Q339.645,294.654 339.301,294.63 Q338.645,294.591 338.645,294.083 Q338.645,293.622 339.285,293.544 Q339.535,293.521 339.7,293.49 Q340.309,293.396 340.684,292.99 Q341.059,292.583 341.059,292.005 Q341.059,291.263 340.598,290.794 Q340.137,290.326 339.426,290.326 Q338.77,290.326 338.078,290.732 Q337.387,291.138 337.215,291.138 Q336.996,291.138 336.852,290.997 Q336.707,290.857 336.707,290.646 Q336.707,290.169 337.582,289.697 Q338.457,289.224 339.52,289.224 Q340.739,289.224 341.547,289.962 Q342.356,290.701 342.356,291.779 Q342.356,292.599 341.969,293.13 Q341.582,293.661 340.77,293.958 z M347.254,296.646 Q347.254,297.474 347.774,297.99 Q348.293,298.505 349.153,298.505 Q350.02,298.505 350.539,298.005 Q351.059,297.505 351.059,296.677 Q351.059,295.865 350.528,295.361 Q349.996,294.857 349.153,294.857 Q348.317,294.857 347.785,295.353 Q347.254,295.849 347.254,296.646 z M347.332,291.99 Q347.332,292.763 347.844,293.255 Q348.356,293.747 349.153,293.747 Q349.957,293.747 350.469,293.251 Q350.981,292.755 350.981,291.974 Q350.981,291.224 350.469,290.736 Q349.957,290.247 349.153,290.247 Q348.348,290.247 347.84,290.736 Q347.332,291.224 347.332,291.99 z M347.59,294.279 Q346.832,293.904 346.45,293.329 Q346.067,292.755 346.067,291.99 Q346.067,290.779 346.934,290.001 Q347.801,289.224 349.153,289.224 Q350.481,289.224 351.364,290.005 Q352.246,290.786 352.246,291.911 Q352.246,292.747 351.871,293.326 Q351.496,293.904 350.707,294.279 Q351.496,294.599 351.918,295.22 Q352.34,295.841 352.34,296.677 Q352.34,297.966 351.453,298.779 Q350.567,299.591 349.153,299.591 Q347.739,299.591 346.856,298.771 Q345.973,297.951 345.973,296.646 Q345.973,295.849 346.395,295.228 Q346.817,294.607 347.59,294.279 z M356.114,296.068 Q356.176,297.193 356.875,297.806 Q357.575,298.419 358.785,298.419 Q359.7,298.419 360.778,297.931 Q361.856,297.443 362.082,297.443 Q362.317,297.443 362.473,297.591 Q362.629,297.74 362.629,297.958 Q362.629,298.185 362.465,298.372 Q362.301,298.56 361.942,298.74 Q361.16,299.122 360.328,299.326 Q359.496,299.529 358.676,299.529 Q356.895,299.529 355.825,298.501 Q354.754,297.474 354.754,295.779 Q354.754,294.052 355.887,292.982 Q357.02,291.911 358.84,291.911 Q360.489,291.911 361.575,292.911 Q362.66,293.911 362.66,295.333 Q362.66,295.771 362.477,295.919 Q362.293,296.068 361.481,296.068 L361.364,296.068 z M356.153,295.044 L361.239,295.044 Q361.121,294.115 360.461,293.548 Q359.801,292.982 358.84,292.982 Q357.801,292.982 357.09,293.529 Q356.379,294.076 356.153,295.044 z M368.778,298.247 Q369.879,298.247 370.567,297.552 Q371.254,296.857 371.254,295.747 Q371.254,294.661 370.555,293.958 Q369.856,293.255 368.778,293.255 Q367.692,293.255 367,293.954 Q366.309,294.654 366.309,295.747 Q366.309,296.841 367,297.544 Q367.692,298.247 368.778,298.247 z M366.34,293.24 Q366.778,292.693 367.434,292.404 Q368.09,292.115 368.918,292.115 Q370.489,292.115 371.535,293.173 Q372.582,294.232 372.582,295.794 Q372.582,297.333 371.508,298.404 Q370.434,299.474 368.887,299.474 Q368.067,299.474 367.457,299.185 Q366.848,298.896 366.457,298.31 L366.457,298.935 Q366.457,299.146 366.383,299.24 Q366.309,299.333 366.137,299.333 L364.707,299.333 Q364.403,299.333 364.254,299.193 Q364.106,299.052 364.106,298.771 Q364.106,298.458 364.285,298.345 Q364.465,298.232 364.996,298.232 L365.16,298.232 L365.16,290.232 L365.012,290.232 Q364.481,290.232 364.285,290.107 Q364.09,289.982 364.09,289.669 Q364.09,289.388 364.246,289.247 Q364.403,289.107 364.707,289.107 L365.895,289.107 Q366.129,289.107 366.235,289.185 Q366.34,289.263 366.34,289.427 z M376.059,296.646 Q376.059,297.474 376.578,297.99 Q377.098,298.505 377.957,298.505 Q378.825,298.505 379.344,298.005 Q379.864,297.505 379.864,296.677 Q379.864,295.865 379.332,295.361 Q378.801,294.857 377.957,294.857 Q377.121,294.857 376.59,295.353 Q376.059,295.849 376.059,296.646 z M376.137,291.99 Q376.137,292.763 376.649,293.255 Q377.16,293.747 377.957,293.747 Q378.762,293.747 379.274,293.251 Q379.785,292.755 379.785,291.974 Q379.785,291.224 379.274,290.736 Q378.762,290.247 377.957,290.247 Q377.153,290.247 376.645,290.736 Q376.137,291.224 376.137,291.99 z M376.395,294.279 Q375.637,293.904 375.254,293.329 Q374.871,292.755 374.871,291.99 Q374.871,290.779 375.739,290.001 Q376.606,289.224 377.957,289.224 Q379.285,289.224 380.168,290.005 Q381.051,290.786 381.051,291.911 Q381.051,292.747 380.676,293.326 Q380.301,293.904 379.512,294.279 Q380.301,294.599 380.723,295.22 Q381.145,295.841 381.145,296.677 Q381.145,297.966 380.258,298.779 Q379.371,299.591 377.957,299.591 Q376.543,299.591 375.66,298.771 Q374.778,297.951 374.778,296.646 Q374.778,295.849 375.2,295.228 Q375.621,294.607 376.395,294.279 z M389.34,294.615 Q388.918,295.154 388.41,295.419 Q387.903,295.685 387.293,295.685 Q386.059,295.685 385.196,294.759 Q384.332,293.833 384.332,292.482 Q384.332,291.06 385.164,290.142 Q385.996,289.224 387.293,289.224 Q388.825,289.224 389.762,290.454 Q390.7,291.685 390.7,293.716 Q390.7,296.396 389.328,297.993 Q387.957,299.591 385.66,299.591 Q384.934,299.591 384.696,299.482 Q384.457,299.372 384.457,299.076 Q384.457,298.576 385.387,298.552 Q386.004,298.536 386.364,298.466 Q387.598,298.24 388.367,297.24 Q389.137,296.24 389.34,294.615 z M389.176,292.521 Q389.176,291.552 388.664,290.947 Q388.153,290.341 387.356,290.341 Q386.598,290.341 386.129,290.911 Q385.66,291.482 385.66,292.404 Q385.66,293.357 386.153,293.954 Q386.645,294.552 387.418,294.552 Q388.176,294.552 388.676,293.978 Q389.176,293.404 389.176,292.521 z" fill-opacity="0" stroke="#808080" stroke-width="1"/>
    </g>
    <path d="M403.5,304.333 C403.5,289.146 415.812,276.833 431,276.833" fill-opacity="0" stroke="#FF4500" stroke-width="4"/>
    <path d="M396.167,233.167 L396.167,233.167" fill-opacity="0" stroke="#FF4500" stroke-width="4"/>
    <path d="M484.731,276.667 C499.919,276.667 513.231,289.146 513.231,304.333" fill-opacity="0" stroke="#FF4500" stroke-width="4"/>
    <path d="M403.5,490.667 C403.5,505.854 415.812,518.167 431,518.167" fill-opacity="0" stroke="#FF4500" stroke-width="4"/>
    <path d="M513.231,495.167 C513.231,510.355 500.919,518.167 485.731,518.167" fill-opacity="0" stroke="#FF4500" stroke-width="4"/>
    <path d="M403.5,304.333 L403.5,323.167" fill-opacity="0" stroke="#FF4500" stroke-width="4"/>
    <path d="M403.5,471.167 L403.5,490.667" fill-opacity="0" stroke="#FF4500" stroke-width="4"/>
    <path d="M513.231,304.333 L513.231,328" fill-opacity="0" stroke="#FF4500" stroke-width="4"/>
    <path d="M513.231,471.167 L513.231,495.167" fill-opacity="0" stroke="#FF4500" stroke-width="4"/>
    <path d="M431,518.167 L488.833,518.167" fill-opacity="0" stroke="#FF4500" stroke-width="4"/>
    <path d="M428.167,276.833 L485.731,276.833" fill-opacity="0" stroke="#FF4500" stroke-width="4"/>
  </g>
</svg>
