<?xml version="1.0" encoding="UTF-8"?>
<!DOCTYPE svg PUBLIC "-//W3C//DTD SVG 1.1//EN" "http://www.w3.org/Graphics/SVG/1.1/DTD/svg11.dtd">
<svg version="1.1" xmlns="http://www.w3.org/2000/svg" xmlns:xlink="http://www.w3.org/1999/xlink" x="0" y="0" width="226.709" height="94" viewBox="0, 0, 226.709, 94">
  <g id="Layer_1" transform="translate(-333.291, -375)">
    <text transform="matrix(1, 0, 0, 1, 372.457, 420.667)">
      <tspan x="-5.328" y="17.5" font-family="HelveticaNeue" font-size="48" fill="#808080">i</tspan>
    </text>
    <g>
      <text transform="matrix(1, 0, 0, 1, 473, 422)">
        <tspan x="-26.688" y="17.5" font-family="HelveticaNeue" font-size="48" fill="#808080">10</tspan>
      </text>
      <path d="M463.4,439.5 L463.4,405.468 L460.28,405.468 Q459.944,407.388 459.032,408.636 Q458.12,409.884 456.8,410.604 Q455.48,411.324 453.848,411.588 Q452.216,411.852 450.488,411.852 L450.488,415.116 L459.32,415.116 L459.32,439.5 z M479.336,422.748 Q479.336,421.5 479.36,419.988 Q479.384,418.476 479.6,416.964 Q479.816,415.452 480.224,414.012 Q480.632,412.572 481.424,411.492 Q482.216,410.412 483.416,409.74 Q484.616,409.068 486.344,409.068 Q488.072,409.068 489.272,409.74 Q490.472,410.412 491.264,411.492 Q492.056,412.572 492.464,414.012 Q492.872,415.452 493.088,416.964 Q493.304,418.476 493.328,419.988 Q493.352,421.5 493.352,422.748 Q493.352,424.668 493.232,427.044 Q493.112,429.42 492.464,431.508 Q491.816,433.596 490.376,435.036 Q488.936,436.476 486.344,436.476 Q483.752,436.476 482.312,435.036 Q480.872,433.596 480.224,431.508 Q479.576,429.42 479.456,427.044 Q479.336,424.668 479.336,422.748 z M475.016,422.796 Q475.016,424.668 475.112,426.684 Q475.208,428.7 475.592,430.62 Q475.976,432.54 476.696,434.244 Q477.416,435.948 478.664,437.244 Q479.912,438.54 481.808,439.284 Q483.704,440.028 486.344,440.028 Q489.032,440.028 490.904,439.284 Q492.776,438.54 494.024,437.244 Q495.272,435.948 495.992,434.244 Q496.712,432.54 497.096,430.62 Q497.48,428.7 497.576,426.684 Q497.672,424.668 497.672,422.796 Q497.672,420.924 497.576,418.908 Q497.48,416.892 497.096,414.972 Q496.712,413.052 495.992,411.324 Q495.272,409.596 494.024,408.3 Q492.776,407.004 490.88,406.236 Q488.984,405.468 486.344,405.468 Q483.704,405.468 481.808,406.236 Q479.912,407.004 478.664,408.3 Q477.416,409.596 476.696,411.324 Q475.976,413.052 475.592,414.972 Q475.208,416.892 475.112,418.908 Q475.016,420.924 475.016,422.796 z" fill-opacity="0" stroke="#808080" stroke-width="1"/>
    </g>
    <path d="M432.5,384.5 L514.5,384.5 C534.935,384.5 551.5,401.065 551.5,421.5 L551.5,423.5 C551.5,443.935 534.935,460.5 514.5,460.5 L432.5,460.5 C412.065,460.5 395.5,443.935 395.5,423.5 L395.5,421.5 C395.5,401.065 412.065,384.5 432.5,384.5 z" fill-opacity="0" stroke="#FF4500" stroke-width="4"/>
  </g>
</svg>
