<?xml version="1.0" encoding="UTF-8"?>
<!DOCTYPE svg PUBLIC "-//W3C//DTD SVG 1.1//EN" "http://www.w3.org/Graphics/SVG/1.1/DTD/svg11.dtd">
<svg version="1.1" xmlns="http://www.w3.org/2000/svg" xmlns:xlink="http://www.w3.org/1999/xlink" x="0" y="0" width="175.376" height="71.333" viewBox="0, 0, 175.376, 71.333">
  <g id="Layer_1" transform="translate(-351.333, -375)">
    <text transform="matrix(1, 0, 0, 1, 373.167, 410.667)">
      <tspan x="-3.996" y="12.5" font-family="HelveticaNeue" font-size="36" fill="#808080">i</tspan>
    </text>
    <g>
      <text transform="matrix(1, 0, 0, 1, 460.688, 415)">
        <tspan x="-20.016" y="8.167" font-family="HelveticaNeue" font-size="36" fill="#808080">10</tspan>
      </text>
      <path d="M453.488,423.167 L453.488,397.643 L451.148,397.643 Q450.896,399.083 450.212,400.019 Q449.528,400.955 448.538,401.495 Q447.548,402.035 446.324,402.233 Q445.1,402.431 443.804,402.431 L443.804,404.879 L450.428,404.879 L450.428,423.167 z M465.44,410.603 Q465.44,409.667 465.458,408.533 Q465.476,407.399 465.638,406.265 Q465.8,405.131 466.106,404.051 Q466.412,402.971 467.006,402.161 Q467.6,401.351 468.5,400.847 Q469.4,400.343 470.696,400.343 Q471.992,400.343 472.892,400.847 Q473.792,401.351 474.386,402.161 Q474.98,402.971 475.286,404.051 Q475.592,405.131 475.754,406.265 Q475.916,407.399 475.934,408.533 Q475.952,409.667 475.952,410.603 Q475.952,412.043 475.862,413.825 Q475.772,415.607 475.286,417.173 Q474.8,418.739 473.72,419.819 Q472.64,420.899 470.696,420.899 Q468.752,420.899 467.672,419.819 Q466.592,418.739 466.106,417.173 Q465.62,415.607 465.53,413.825 Q465.44,412.043 465.44,410.603 z M462.2,410.639 Q462.2,412.043 462.272,413.555 Q462.344,415.067 462.632,416.507 Q462.92,417.947 463.46,419.225 Q464,420.503 464.936,421.475 Q465.872,422.447 467.294,423.005 Q468.716,423.563 470.696,423.563 Q472.712,423.563 474.116,423.005 Q475.52,422.447 476.456,421.475 Q477.392,420.503 477.932,419.225 Q478.472,417.947 478.76,416.507 Q479.048,415.067 479.12,413.555 Q479.192,412.043 479.192,410.639 Q479.192,409.235 479.12,407.723 Q479.048,406.211 478.76,404.771 Q478.472,403.331 477.932,402.035 Q477.392,400.739 476.456,399.767 Q475.52,398.795 474.098,398.219 Q472.676,397.643 470.696,397.643 Q468.716,397.643 467.294,398.219 Q465.872,398.795 464.936,399.767 Q464,400.739 463.46,402.035 Q462.92,403.331 462.632,404.771 Q462.344,406.211 462.272,407.723 Q462.2,409.235 462.2,410.639 z" fill-opacity="0" stroke="#808080" stroke-width="1"/>
    </g>
    <path d="M431.724,384.5 L491.319,384.5 C506.17,384.5 518.209,396.125 518.209,410.465 L518.209,411.868 C518.209,426.208 506.17,437.833 491.319,437.833 L431.724,437.833 C416.873,437.833 404.833,426.208 404.833,411.868 L404.833,410.465 C404.833,396.125 416.873,384.5 431.724,384.5 z" fill-opacity="0" stroke="#FF4500" stroke-width="4"/>
  </g>
</svg>
