<?xml version="1.0" encoding="UTF-8"?>
<!DOCTYPE svg PUBLIC "-//W3C//DTD SVG 1.1//EN" "http://www.w3.org/Graphics/SVG/1.1/DTD/svg11.dtd">
<svg version="1.1" xmlns="http://www.w3.org/2000/svg" xmlns:xlink="http://www.w3.org/1999/xlink" x="0" y="0" width="182.709" height="71.333" viewBox="0, 0, 182.709, 71.333">
  <g id="Layer_1" transform="translate(-106.667, -365)">
    <text transform="matrix(1, 0, 0, 1, 132.167, 400.667)">
      <tspan x="-21.654" y="12.5" font-family="HelveticaNeue" font-size="36" fill="#808080">arr</tspan>
    </text>
    <path d="M194.39,374.5 L253.986,374.5 C268.837,374.5 280.876,386.125 280.876,400.465 L280.876,401.868 C280.876,416.208 268.837,427.833 253.986,427.833 L194.39,427.833 C179.539,427.833 167.5,416.208 167.5,401.868 L167.5,400.465 C167.5,386.125 179.539,374.5 194.39,374.5 z" fill-opacity="0" stroke="#FF4500" stroke-width="4"/>
    <g>
      <text transform="matrix(1, 0, 0, 1, 223.688, 405)">
        <tspan x="-10.008" y="8.167" font-family="HelveticaNeue" font-size="36" fill="#808080">9</tspan>
      </text>
      <path d="M218.504,407.011 L215.444,407.011 Q215.732,410.323 217.856,411.943 Q219.98,413.563 223.184,413.563 Q227.828,413.563 229.934,410.017 Q232.04,406.471 232.04,399.847 Q232.04,396.211 231.338,393.853 Q230.636,391.495 229.448,390.127 Q228.26,388.759 226.676,388.201 Q225.092,387.643 223.292,387.643 Q221.456,387.643 219.908,388.255 Q218.36,388.867 217.244,389.965 Q216.128,391.063 215.516,392.593 Q214.904,394.123 214.904,395.959 Q214.904,397.831 215.426,399.415 Q215.948,400.999 216.974,402.115 Q218,403.231 219.512,403.861 Q221.024,404.491 222.968,404.491 Q224.84,404.491 226.424,403.537 Q228.008,402.583 228.872,400.963 L228.944,401.035 Q228.8,406.039 227.396,408.469 Q225.992,410.899 223.184,410.899 Q221.348,410.899 220.016,409.891 Q218.684,408.883 218.504,407.011 z M228.404,396.175 Q228.404,397.291 228.044,398.317 Q227.684,399.343 227,400.117 Q226.316,400.891 225.344,401.341 Q224.372,401.791 223.184,401.791 Q222.068,401.791 221.15,401.341 Q220.232,400.891 219.566,400.135 Q218.9,399.379 218.522,398.407 Q218.144,397.435 218.144,396.391 Q218.144,395.203 218.414,394.123 Q218.684,393.043 219.278,392.197 Q219.872,391.351 220.826,390.847 Q221.78,390.343 223.148,390.343 Q224.444,390.343 225.416,390.811 Q226.388,391.279 227.054,392.089 Q227.72,392.899 228.062,393.943 Q228.404,394.987 228.404,396.175 z" fill-opacity="0" stroke="#808080" stroke-width="1"/>
    </g>
  </g>
</svg>
